<?xml version="1.0" encoding="UTF-8"?>
<svg width="140px" height="48px" viewBox="0 0 140 48" version="1.1" xmlns="http://www.w3.org/2000/svg" xmlns:xlink="http://www.w3.org/1999/xlink">
    <title>Download_on_the_App_Store_Badge_AR_RGB_blk_102417</title>
    <g id="new-website" stroke="none" stroke-width="1" fill="none" fill-rule="evenodd">
        <g id="VERSION2" transform="translate(-99.000000, -3599.000000)" fill-rule="nonzero">
            <g id="Download_on_the_App_Store_Badge_AR_RGB_blk_102417" transform="translate(99.227646, 3599.799465)">
                <g id="Group">
                    <path d="M11.1059953,-1.52546274e-15 C10.6788631,-1.52546274e-15 10.2568561,-1.52546274e-15 9.83085376,0.002481024 C9.47425024,0.004810624 9.12048883,0.011578112 8.76040256,0.017273984 C7.97827476,0.0264810977 7.19798643,0.0952910136 6.42631808,0.223105792 C5.65571449,0.353706402 4.90925062,0.599925443 4.21217306,0.953435392 C3.51594811,1.30993607 2.87978748,1.77317216 2.32676954,2.32633856 C1.77084835,2.8779494 1.30744511,3.5155369 0.95437888,4.21458419 C0.600338201,4.91224013 0.354845252,5.65984275 0.22637888,6.43157133 C0.0966911443,7.2023252 0.0269049938,7.98196735 0.01764672,8.76350093 C0.006837376,9.12062861 0.005695872,9.47894438 0,9.83611866 L0,36.7596087 C0.005695872,37.1212791 0.006837376,37.4716509 0.01764672,37.8334378 C0.0269079261,38.6149326 0.0966940772,39.3945358 0.22637888,40.1652509 C0.354490696,40.9374306 0.599998152,41.6854624 0.95437888,42.3833796 C1.30728463,43.0801664 1.77075305,43.7151727 2.32676954,44.2637162 C2.87769074,44.819342 3.51426255,45.2828933 4.21217306,45.636666 C4.90924559,45.9911214 5.65562889,46.238806 6.42631808,46.3714218 C7.19813666,46.498217 7.97836441,46.5670549 8.7604608,46.5773585 C9.12048883,46.5852791 9.47425024,46.5898218 9.830912,46.5898218 C10.2568444,46.5921514 10.6788864,46.5921514 11.1059953,46.5921514 L128.28498,46.5921514 C128.703609,46.5921514 129.128994,46.5921514 129.547623,46.5898218 C129.902538,46.5898218 130.266538,46.5852791 130.621452,46.5773585 C131.40207,46.5676015 132.180829,46.4987593 132.951052,46.3714218 C133.724228,46.2378741 134.473288,45.9902551 135.173724,45.636666 C135.871004,45.2826874 136.506988,44.8191489 137.057438,44.2637162 C137.61202,43.7130238 138.076478,43.0784821 138.433766,42.3833796 C138.785486,41.684954 139.028656,40.9369823 139.154894,40.1652509 C139.284784,39.3944298 139.357046,38.6150002 139.371081,37.8334378 C139.375623,37.4716509 139.375623,37.1212791 139.375623,36.7596087 C139.384709,36.3364369 139.384709,35.9155946 139.384709,35.4855505 L139.384709,11.1078356 C139.384709,10.6812742 139.384709,10.2581257 139.375623,9.83611866 C139.375623,9.47894438 139.375623,9.12062861 139.371081,8.76345434 C139.357051,7.98185312 139.284788,7.20238441 139.154894,6.43152474 C139.028303,5.66024344 138.785147,4.91270055 138.433766,4.2145376 C137.714766,2.81336995 136.574634,1.67283124 135.173724,0.95333056 C134.473285,0.600685275 133.724146,0.354531669 132.951052,0.22300096 C132.180962,0.0946198082 131.402122,0.02578593 130.621452,0.017110912 C130.266538,0.011426688 129.902538,0.00460096 129.547623,0.0023296 C129.128994,-1.52546274e-15 128.703609,-1.52546274e-15 128.28498,-1.52546274e-15 L128.28498,-1.52546274e-15" id="Path" fill="#A6A6A6"></path>
                    <path d="M129.541916,1.01935142 L130.605495,1.03414438 C131.330784,1.04276297 132.054391,1.10607079 132.770159,1.22352922 C133.446987,1.33847758 134.102931,1.5535468 134.716423,1.8616649 C135.925274,2.48465421 136.908893,3.47028089 137.529415,4.68039936 C137.832878,5.28552136 138.043057,5.93306784 138.152816,6.60106138 C138.27371,7.32789822 138.34137,8.06259225 138.355258,8.79928358 C138.358636,9.12915494 138.358636,9.4834871 138.358636,9.83611866 C138.367838,10.2729187 138.367838,10.6886707 138.367838,11.1078356 L138.367838,35.4855505 C138.367838,35.9087223 138.367838,36.3216439 138.358636,36.7379434 C138.358636,37.1167364 138.358636,37.4637303 138.354094,37.820858 C138.340504,38.5444033 138.273971,39.2659834 138.155029,39.9798148 C138.046342,40.6566348 137.834197,41.3127107 137.526037,41.9250308 C137.219022,42.5218982 136.819794,43.066611 136.343066,43.5390941 C135.867223,44.0210702 135.316829,44.4232267 134.713045,44.7301021 C134.101253,45.0399316 133.446274,45.2558233 132.770159,45.3705092 C132.050172,45.4881068 131.322388,45.5516107 130.592915,45.5604881 C130.251745,45.5684087 129.894501,45.5729514 129.547623,45.5729514 L128.28498,45.575281 L9.83653798,45.5729514 C9.48164672,45.5729514 9.13532838,45.5684087 8.78322099,45.5604881 C8.05380199,45.5509843 7.32608782,45.4874844 6.60604672,45.3705092 C5.93464479,45.254877 5.28423676,45.0397808 4.67627597,44.7323153 C4.07388999,44.427397 3.52446554,44.0275796 3.04905037,43.5481796 C2.56675334,43.0744269 2.16521926,42.5249542 1.86036032,41.9215364 C1.55214173,41.314197 1.33883612,40.6632024 1.22787392,39.9912298 C1.10804442,39.2691876 1.04321167,38.5390891 1.03393472,37.8072298 C1.02654989,37.5615735 1.0168704,36.7436509 1.0168704,36.7436509 L1.0168704,9.83611866 C1.0168704,9.83611866 1.02717888,9.03076429 1.03399296,8.79415846 C1.04287557,8.06345852 1.10733131,7.33449296 1.2268023,6.61357133 C1.33796933,5.93975792 1.55144007,5.2868861 1.85982451,4.67755725 C2.16355803,4.07453579 2.56286308,3.52463286 3.04225958,3.04916685 C3.52111639,2.56922169 4.0722981,2.16736536 4.67570522,1.85825203 C5.2822686,1.55177405 5.93144749,1.33819509 6.60149235,1.22467072 C7.32389819,1.10652043 8.0541387,1.04264273 8.7860864,1.03357363 L9.83710874,1.01935142" id="Path" fill="#000000"></path>
                </g>
                <g id="_Group_2" transform="translate(107.699374, 10.157522)" fill="#FFFFFF">
                    <path d="M17.2359097,13.4888616 C17.2613687,11.5128123 18.2973254,9.68754388 19.9808308,8.65254208 C18.9139585,7.12885878 17.1910789,6.19744461 15.3319276,6.13927642 C13.3759488,5.93396877 11.4797127,7.3097024 10.4829817,7.3097024 C9.46696157,7.3097024 7.93233757,6.15966042 6.27980087,6.19366093 C4.10549416,6.26391047 2.12759015,7.47016164 1.06974365,9.3710839 C-1.18297955,13.2713235 0.497349285,19.0033626 2.65526941,22.1560219 C3.73492253,23.6997896 4.99672708,25.4242177 6.64777284,25.3630657 C8.26342033,25.2960548 8.86683332,24.3328234 10.817058,24.3328234 C12.7491816,24.3328234 13.3153093,25.3630657 14.9998548,25.3241847 C16.7335198,25.2960431 17.825811,23.7735564 18.8675848,22.2151704 C19.6433157,21.1151807 20.240238,19.8994509 20.6362404,18.6130148 C18.5771729,17.7421303 17.2383129,15.7245255 17.2359097,13.4888616 L17.2359097,13.4888616 Z" id="_Path_"></path>
                    <path d="M14.0541303,4.06587418 C14.9993965,2.93111659 15.4650933,1.47257796 15.3523232,0 C13.9081667,0.151680824 12.5741706,0.841893766 11.6161341,1.93311373 C10.6701181,3.00974954 10.1908682,4.41827606 10.2839406,5.8484608 C11.7474616,5.86352954 13.1370438,5.20651997 14.0541303,4.06587418 L14.0541303,4.06587418 Z" id="_Path_2"></path>
                </g>
                <g id="Group" transform="translate(10.859547, 20.816385)" fill="#FFFFFF">
                    <path d="M9.1728,10.7960303 L3.65933568,10.7960303 L2.33530752,14.7056116 L0,14.7056116 L5.22226432,0.241125248 L7.64854272,0.241125248 L12.870807,14.7056116 L10.4956983,14.7056116 L9.1728,10.7960303 Z M4.23036723,8.99195315 L8.60069683,8.99195315 L6.4462711,2.64697306 L6.38598106,2.64697306 L4.23036723,8.99195315 Z" id="Shape"></path>
                    <path d="M24.1491228,9.43330752 C24.1491228,12.710449 22.3950971,14.8159532 19.7481357,14.8159532 C18.3799444,14.8875238 17.0911831,14.1708994 16.4300515,12.97091 L16.3799651,12.97091 L16.3799651,18.1943158 L14.2153357,18.1943158 L14.2153357,4.15985024 L16.3105779,4.15985024 L16.3105779,5.91387597 L16.3503908,5.91387597 C17.0408989,4.72141026 18.3310549,4.00509849 19.7082995,4.04952038 C22.3848585,4.04952038 24.1491228,6.1652631 24.1491228,9.43330752 Z M21.9241801,9.43330752 C21.9241801,7.29822912 20.8207884,5.89454029 19.1372913,5.89454029 C17.4833684,5.89454029 16.3708913,7.32779174 16.3708913,9.43330752 C16.3708913,11.558159 17.4833684,12.9811718 19.1372913,12.9811718 C20.8208,12.9811718 21.9241801,11.5877332 21.9241801,9.43330752 L21.9241801,9.43330752 Z" id="Shape"></path>
                    <path d="M35.7561801,9.43330752 C35.7561801,12.710449 34.0021544,14.8159532 31.355193,14.8159532 C29.9870017,14.8875238 28.6982404,14.1708994 28.0371087,12.97091 L27.9870223,12.97091 L27.9870223,18.1943158 L25.8223347,18.1943158 L25.8223347,4.15985024 L27.9176119,4.15985024 L27.9176119,5.91387597 L27.9574131,5.91387597 C28.6479162,4.72140954 29.9380673,4.00509356 31.3153102,4.04950874 C33.9919158,4.04952038 35.7561801,6.1652631 35.7561801,9.43330752 Z M33.5312257,9.43330752 C33.5312257,7.29822912 32.4278456,5.89454029 30.7443485,5.89454029 C29.0904257,5.89454029 27.9779485,7.32779174 27.9779485,9.43330752 C27.9779485,11.558159 29.0904257,12.9811718 30.7443485,12.9811718 C32.4278456,12.9811718 33.5312257,11.5877332 33.5312257,9.43330752 Z" id="Shape"></path>
                    <path d="M43.4274714,10.6754502 C43.5878643,12.1098432 44.9813146,13.0516422 46.8854714,13.0516422 C48.7100257,13.0516422 50.0226971,12.1097966 50.0226971,10.8164493 C50.0226971,9.6937335 49.2309942,9.02149248 47.3564,8.56079078 L45.4818291,8.10924442 C42.8257706,7.46769587 41.5927133,6.2255415 41.5927133,4.20989005 C41.5927133,1.71421286 43.7676163,0 46.8559204,0 C49.9123556,0 52.0076561,1.71421286 52.0781847,4.20989005 L49.8930199,4.20989005 C49.7622129,2.7664 48.5689684,1.89508301 46.8251813,1.89508301 C45.0813942,1.89508301 43.8881614,2.77665024 43.8881614,4.05974733 C43.8881614,5.08236019 44.65029,5.68409587 46.5146456,6.14473933 L48.1082784,6.53604224 C51.0760141,7.23788083 52.3090714,8.43000704 52.3090714,10.5457265 C52.3090714,13.2518364 50.1535041,14.9467136 46.7250784,14.9467136 C43.517324,14.9467136 41.3515299,13.2916493 41.2116141,10.675392 L43.4274714,10.6754502 Z" id="Path"></path>
                    <path d="M56.9807347,1.66417306 L56.9807347,4.15985024 L58.9861476,4.15985024 L58.9861476,5.8740631 L56.9807347,5.8740631 L56.9807347,11.6878245 C56.9807347,12.5909988 57.3822762,13.011876 58.2638318,13.011876 C58.501907,13.0077248 58.7395969,12.991006 58.975909,12.9617896 L58.975909,14.6657638 C58.5795606,14.7398218 58.1767057,14.7733621 57.7735675,14.7658668 C55.6384891,14.7658668 54.8058318,13.9639252 54.8058318,11.9186995 L54.8058318,5.8740631 L53.2725357,5.8740631 L53.2725357,4.15985024 L54.80589,4.15985024 L54.80589,1.66417306 L56.9807347,1.66417306 Z" id="Path"></path>
                    <path d="M60.1475813,9.43330752 C60.1475813,6.1152233 62.1018012,4.0301847 65.1491743,4.0301847 C68.2067743,4.0301847 70.1518971,6.1151767 70.1518971,9.43330752 C70.1518971,12.7605005 68.2170129,14.8364303 65.1491743,14.8364303 C62.0824772,14.8364303 60.1475813,12.7604888 60.1475813,9.43330752 Z M67.94629,9.43330752 C67.94629,7.15717184 66.9031884,5.8137847 65.1491626,5.8137847 C63.3951369,5.8137847 62.3531884,7.16741043 62.3531884,9.43330752 C62.3531884,11.7185403 63.3951369,13.0517005 65.1491626,13.0517005 C66.9031884,13.0517005 67.94629,11.7185403 67.94629,9.43330752 L67.94629,9.43330752 Z" id="Shape"></path>
                    <path d="M71.9366269,4.15985024 L74.0012,4.15985024 L74.0012,5.95480704 L74.0512864,5.95480704 C74.3391971,4.79931193 75.3979496,4.00406005 76.5879063,4.04949709 C76.8373646,4.04862609 77.0861346,4.07571761 77.3295578,4.13026432 L77.3295578,6.15501286 C77.014632,6.05878034 76.6861102,6.0145971 76.3569498,6.02420582 C75.720558,5.99838452 75.1046707,6.25200602 74.6710037,6.71847592 C74.2373367,7.18494581 74.029217,7.81766001 74.1012913,8.45048422 L74.1012913,14.7056 L71.9366269,14.7056 L71.9366269,4.15985024 Z" id="Path"></path>
                    <path d="M87.3099485,11.6081988 C87.0187485,13.5226058 85.1543813,14.8364187 82.7690456,14.8364187 C79.701207,14.8364187 77.7970386,12.7809544 77.7970386,9.48334733 C77.7970386,6.1755017 79.7114456,4.03017306 82.6780515,4.03017306 C85.5957357,4.03017306 87.4305286,6.03444442 87.4305286,9.23196019 L87.4305286,9.97361165 L79.9821801,9.97361165 L79.9821801,10.1044187 C79.9126385,10.8895307 80.1837389,11.6666827 80.7265221,12.2381924 C81.2693054,12.8097021 82.0314564,13.1204858 82.8191087,13.09149 C83.8695746,13.1899152 84.8599584,12.5867096 85.2544959,11.6081871 L87.3099485,11.6081988 Z M79.9924012,8.46074611 L85.2647228,8.46074611 C85.3021237,7.78916288 85.0712061,7.1302287 84.6227696,6.62890288 C84.1743331,6.12757706 83.5451117,5.82492601 82.8735282,5.78753011 C82.8084314,5.7839037 82.7432725,5.78279326 82.6780515,5.78419878 C81.9700096,5.77997555 81.2892896,6.05719397 80.7856422,6.5548691 C80.2819949,7.05254422 79.9966764,7.72990907 79.9924012,8.43795098 C79.9924012,8.445561 79.9924012,8.45315938 79.9924012,8.46074611 Z" id="Shape"></path>
                </g>
                <g id="Group" transform="translate(58.853628, 10.127721)" fill="#FFFFFF">
                    <path d="M3.80550643,8.60649074 L3.0445193,8.60649074 C1.5628937,8.60649074 0,8.30221004 0,6.25187084 C0.0993675568,5.32992164 0.310584748,4.4234948 0.628992,3.55258662 L1.61349261,3.8164837 L1.47130547,4.27319014 C1.26070626,4.91553565 1.12127889,5.57906461 1.05553011,6.25184754 C1.05553011,7.66235046 2.40517222,7.66235046 3.31858509,7.66235046 L3.95786227,7.66235046 C4.4145687,7.66235046 5.0436073,7.4797797 5.0436073,6.90136332 L5.0436073,2.8928206 L6.12992307,2.8928206 L6.12992307,5.89695628 C6.36389385,5.99624013 6.61633804,6.04451799 6.87043302,6.03857266 L7.24581312,6.03857266 L7.24581312,6.97246271 L6.87043302,6.97246271 C6.6195502,6.97072414 6.37019953,6.93318858 6.12992307,6.86099135 L6.12992307,7.00309695 C6.12999296,7.53041356 5.72390874,8.60649074 3.80550643,8.60649074 Z M3.18670643,1.79684863 C2.83060408,1.77793021 2.55503048,1.47768003 2.56664658,1.12126474 C2.57826268,0.764849452 2.87280188,0.483180081 3.22938038,0.48748897 C3.58595888,0.491797858 3.87360569,0.780502355 3.87660582,1.13709426 C3.88629743,1.49254926 3.60600395,1.78856061 3.25054912,1.79825804 C3.22925658,1.79884044 3.20797568,1.79836676 3.18670643,1.79683698 L3.18670643,1.79684863 Z" id="Shape"></path>
                    <path d="M8.47153216,6.03858431 C8.34649348,5.59293444 8.28822556,5.13120711 8.29862925,4.66846502 C8.2338355,4.04938902 8.43805821,3.4323029 8.85937302,2.97410301 C9.28068784,2.51590312 9.87850781,2.2607297 10.5008351,2.2734615 C11.9420421,2.2734615 12.5005637,3.45077145 12.5005637,4.85160652 C12.5005637,5.88672934 12.1348165,7.28699366 10.7243602,7.28699366 C10.2592627,7.24208919 9.80206716,7.1363548 9.36447949,6.97249766 L7.06050509,6.97249766 L7.06050509,6.03860761 L8.47153216,6.03858431 Z M9.56751578,6.07953868 C9.91230906,6.22541463 10.2795248,6.31120586 10.6532608,6.33319718 C11.2822528,6.33319718 11.4552023,5.53125567 11.4552023,4.82089074 C11.4552023,4.14122994 11.262393,3.16696793 10.4399859,3.16696793 C9.69947597,3.16696793 9.37471808,3.85686732 9.37471808,4.72989657 C9.36092511,5.18751131 9.42614661,5.64407754 9.56751578,6.07952703 L9.56751578,6.07953868 Z" id="Shape"></path>
                    <path d="M19.6628257,8.60649074 L18.9018386,8.60649074 C17.4196772,8.60649074 15.8567485,8.30221004 15.8567485,6.25187084 C15.9563909,5.3299683 16.1676004,4.4235744 16.4857405,3.55258662 L17.4708119,3.8164837 L17.3286248,4.27319014 C17.1178175,4.9155086 16.978206,5.57904046 16.912302,6.25184754 C16.912302,7.66235046 18.2625148,7.66235046 19.1759277,7.66235046 L19.8152049,7.66235046 C20.2713405,7.66235046 20.9003791,7.4797797 20.9003791,6.90136332 L20.9003791,0.132116473 L21.9866949,0.132116473 L21.9866949,5.89696793 C22.2206828,5.99619553 22.4731147,6.04447105 22.7272049,6.03858431 L23.102585,6.03858431 L23.102585,6.97247436 L22.7272049,6.97247436 C22.4763282,6.97065683 22.2269887,6.93312294 21.9866949,6.861003 L21.9866949,7.0031086 C21.9867415,7.53041356 21.5806573,8.60649074 19.6628257,8.60649074 Z" id="Path"></path>
                    <path d="M26.754,2.32464281 L26.754,5.17635276 C26.754,6.38380774 26.0328257,6.97247436 24.6018456,6.97247436 L22.9172187,6.97247436 L22.9172187,6.03858431 L24.5620444,6.03858431 C25.4242643,6.03858431 25.6574573,5.66320422 25.6574573,5.02393868 L25.6574573,2.32464281 L26.754,2.32464281 Z M24.034192,9.24575628 C23.6781625,9.22654997 23.402849,8.92617356 23.4146564,8.56982198 C23.4264638,8.2134704 23.7210571,7.93197739 24.0775771,7.93638082 C24.434097,7.94078425 24.721648,8.22946741 24.7246505,8.58600191 C24.7296216,8.76788993 24.6574012,8.94338939 24.5258503,9.06909669 C24.3942994,9.19480399 24.2157016,9.25898117 24.0342269,9.24575628 L24.034192,9.24575628 Z M25.7393078,9.24575628 C25.383121,9.22713835 25.1072698,8.92701198 25.1186885,8.57052181 C25.1301071,8.21403163 25.4245996,7.93217374 25.7812477,7.93638837 C26.1378958,7.940603 26.4256454,8.22934145 26.4286364,8.58600191 C26.4383147,8.9414612 26.158004,9.23746379 25.8025448,9.24714239 C25.7814774,9.24771703 25.7604178,9.24725499 25.739366,9.24575628 L25.7393078,9.24575628 Z" id="Shape"></path>
                    <path d="M27.5639087,8.49500774 C27.7186598,8.51399494 27.8743753,8.52405993 28.030283,8.52515276 C28.9243602,8.52515276 29.3702573,8.00758553 29.3702573,6.96222412 L29.3702573,2.88258201 L30.4668116,2.88258201 L30.4668116,6.03857266 L31.4712187,6.03857266 L31.4712187,6.97246271 L30.4565731,6.97246271 C30.4686621,7.66434113 30.2183106,8.33513294 29.755876,8.84991065 C29.2626216,9.26259391 28.633022,9.47617974 27.9904818,9.44880422 C27.7595501,9.44515179 27.5290183,9.42824993 27.3000233,9.39818201 L27.5639087,8.49500774 Z M29.8673473,1.8980814 C29.5113179,1.87887509 29.2360043,1.57849868 29.2478117,1.2221471 C29.2596191,0.865795516 29.5542125,0.584302508 29.9107324,0.58870594 C30.2672524,0.593109371 30.5548034,0.881792532 30.5578058,1.23832703 C30.5628881,1.4202544 30.4906972,1.59582643 30.3591125,1.7215597 C30.2275277,1.84729297 30.0488556,1.91142827 29.8673473,1.8980814 L29.8673473,1.8980814 Z" id="Shape"></path>
                    <path d="M35.0725357,6.97246271 C34.6349571,6.95888996 34.2070266,6.84049597 33.8246971,6.62722764 C33.2993005,6.90847935 32.7026358,7.02856509 32.1093427,6.97246271 L31.2869939,6.97246271 L31.2869939,6.03857266 L32.1708325,6.03857266 C33.0023483,6.03857266 33.1650126,5.90662412 33.1650126,5.29806271 L33.1650126,2.32464281 L34.2513284,2.32464281 L34.2513284,5.85601356 C34.5074292,5.97914787 34.7884569,6.04162063 35.0726056,6.03858431 L35.7528488,6.03858431 L35.7528488,6.97247436 L35.0725357,6.97246271 Z M33.6620444,1.30942642 C33.3060149,1.29022011 33.0307014,0.989843704 33.0425088,0.633492122 C33.0543162,0.27714054 33.3489096,-0.00435246786 33.7054295,5.09636698e-05 C34.0619495,0.0044543952 34.3495005,0.293137556 34.3525029,0.649672057 C34.3575852,0.831599428 34.2853943,1.00717145 34.1538096,1.13290472 C34.0222248,1.25863799 33.8435527,1.32277329 33.6620444,1.30942642 L33.6620444,1.30942642 Z" id="Shape"></path>
                    <path d="M38.3496772,2.32464281 L38.3496772,5.17635276 C38.3496772,6.38380774 37.6296444,6.97247436 36.1986643,6.97247436 L35.5685075,6.97247436 L35.5685075,6.03858431 L36.1577449,6.03858431 C37.0199648,6.03858431 37.2531578,5.66320422 37.2531578,5.02393868 L37.2531578,2.32464281 L38.3496772,2.32464281 Z M36.7355672,1.30942642 C36.3795378,1.29022011 36.1042242,0.989843704 36.1160316,0.633492122 C36.127839,0.27714054 36.4224324,-0.00435246786 36.7789523,5.09636698e-05 C37.1354723,0.0044543952 37.4230233,0.293137556 37.4260257,0.649672057 C37.431108,0.831599428 37.3589171,1.00717145 37.2273324,1.13290472 C37.0957476,1.25863799 36.9170755,1.32277329 36.7355672,1.30942642 Z M38.440683,1.30942642 C38.0846535,1.29022011 37.80934,0.989843704 37.8211474,0.633492122 C37.8329548,0.27714054 38.1275481,-0.00435246786 38.4840681,5.09636698e-05 C38.840588,0.0044543952 39.128139,0.293137556 39.1311415,0.649672057 C39.1362238,0.831599428 39.0640329,1.00717145 38.9324481,1.13290472 C38.8008634,1.25863799 38.6221913,1.32277329 38.440683,1.30942642 L38.440683,1.30942642 Z" id="Shape"></path>
                </g>
            </g>
        </g>
    </g>
</svg>