<?xml version="1.0" encoding="UTF-8"?>
<svg width="28px" height="28px" viewBox="0 0 28 28" version="1.1" xmlns="http://www.w3.org/2000/svg" xmlns:xlink="http://www.w3.org/1999/xlink">
    <title>noun-phone-113115</title>
    <g id="new-website" stroke="none" stroke-width="1" fill="none" fill-rule="evenodd">
        <g id="VERSION2" transform="translate(-1014.000000, -4165.000000)" fill="#000000" fill-rule="nonzero">
            <g id="noun-phone-113115" transform="translate(1014.394949, 4165.500000)">
                <path d="M7.15298918,17.7133352 C11.4800477,22.9494259 22.024757,27.9672191 24.5700473,26.8400191 C27.1152727,25.712884 27.6608869,23.2766775 27.551803,22.1495425 C27.4427386,21.0224074 21.6613389,17.5680848 20.2068223,16.9134517 C18.7525006,16.2590783 17.0797514,18.3677735 16.279803,19.2768057 C15.4435582,20.1495416 12.2436997,17.4950376 10.8619057,16.1497347 C10.8619057,16.1497347 7.22577669,12.0773351 8.06202144,11.2045992 C8.8982662,10.3318633 10.9709896,8.58658631 10.2438287,7.16849598 C9.51692758,5.75066537 5.84450217,0.0780443273 4.68081101,0.0053217463 C3.55367594,-0.0674722587 1.15376583,0.587160832 0.135649697,3.16868909 C-0.882466438,5.75047058 3.98988156,15.6042504 9.40777878,19.7130763" id="Path"></path>
            </g>
        </g>
    </g>
</svg>